<svg width="66" height="64" viewBox="0 0 66 64" fill="none" xmlns="http://www.w3.org/2000/svg">
<path fill-rule="evenodd" clip-rule="evenodd" d="M29.067 10.0309C31.4031 9.11574 33.5249 8.28453 34.5514 6.31907C35.6933 4.13274 34.6476 0.803852 34.6476 0.803852C34.6476 0.803852 38.5416 3.94379 40.2748 8.45608C41.2963 7.61109 42.0941 6.66564 42.4456 5.41745C43.1143 3.04325 41.4073 0 41.4073 0C41.4073 0 52.5396 5.32584 51.2747 15.4451C50.4308 22.1959 47.0947 24.6742 46.0734 25.2836C47.7657 25.3196 50.3096 25.829 53 28C53 28 50.1626 29.4187 48.1215 30.7599C49.1673 33.1281 50.1838 35.4301 51.2007 37.7327C52.9396 41.6705 54.6794 45.6102 56.5678 49.8869C58.3319 53.8822 59.2073 58.0134 59.2948 62.0777C59.318 63.1514 58.4288 64 57.3549 64H6.21936C5.58807 64 4.99184 63.7028 4.62211 63.1911C2.2807 59.9508 0.588116 56.9505 0 54.5C7.1973 55.3894 14.6303 53.8151 19.5136 49.0182C14.6699 50.4047 9.52612 48.9031 9.52612 48.9031C9.52612 48.9031 12.8556 47.8594 13.9975 45.673C15.024 43.7076 14.4939 41.4913 13.9102 39.0511C13.1953 36.0626 12.4001 32.7382 14.286 29.1274C17.7117 22.5684 22.0869 24.8535 22.0869 24.8535C22.0869 24.8535 17.7117 22.5684 21.1373 16.0094C23.0232 12.3986 26.2058 11.1518 29.067 10.0309ZM39.5 32C40.8807 32 42 30.8807 42 29.5C42 28.1193 40.8807 27 39.5 27C38.1193 27 37 28.1193 37 29.5C37 30.8807 38.1193 32 39.5 32ZM64.9993 38.5C66.4271 35.629 65.2572 32.1441 62.3862 30.7163C59.9367 29.4981 52.9476 30.7421 50.9481 31.1337C50.6688 31.1884 50.5215 31.4846 50.6464 31.7403C51.5407 33.571 54.766 39.895 57.2155 41.1132C60.0866 42.541 63.5715 41.3711 64.9993 38.5Z" fill="#30171B"/>
</svg>
